<mxfile host="65bd71144e">
    <diagram name="Architecture" id="CFF846V32pWp8abgikh7">
        <mxGraphModel dx="904" dy="634" grid="1" gridSize="10" guides="1" tooltips="1" connect="1" arrows="1" fold="1" page="1" pageScale="1" pageWidth="827" pageHeight="1169" math="0" shadow="0">
            <root>
                <mxCell id="0"/>
                <mxCell id="1" parent="0"/>
                <mxCell id="f-vD_DI7PIjXv1ZF155u-5" style="edgeStyle=orthogonalEdgeStyle;rounded=0;orthogonalLoop=1;jettySize=auto;html=1;" parent="1" source="f-vD_DI7PIjXv1ZF155u-1" target="f-vD_DI7PIjXv1ZF155u-2" edge="1">
                    <mxGeometry relative="1" as="geometry"/>
                </mxCell>
                <mxCell id="f-vD_DI7PIjXv1ZF155u-27" value="traffic" style="edgeLabel;html=1;align=center;verticalAlign=middle;resizable=0;points=[];" parent="f-vD_DI7PIjXv1ZF155u-5" vertex="1" connectable="0">
                    <mxGeometry x="-0.2524" y="-1" relative="1" as="geometry">
                        <mxPoint x="8" y="-1" as="offset"/>
                    </mxGeometry>
                </mxCell>
                <mxCell id="f-vD_DI7PIjXv1ZF155u-22" style="edgeStyle=orthogonalEdgeStyle;rounded=0;orthogonalLoop=1;jettySize=auto;html=1;exitX=0.75;exitY=1;exitDx=0;exitDy=0;entryX=0.5;entryY=1;entryDx=0;entryDy=0;" parent="1" source="f-vD_DI7PIjXv1ZF155u-1" target="f-vD_DI7PIjXv1ZF155u-2" edge="1">
                    <mxGeometry relative="1" as="geometry"/>
                </mxCell>
                <mxCell id="f-vD_DI7PIjXv1ZF155u-24" value="pub-key" style="edgeLabel;html=1;align=center;verticalAlign=middle;resizable=0;points=[];" parent="f-vD_DI7PIjXv1ZF155u-22" vertex="1" connectable="0">
                    <mxGeometry x="-0.4737" y="2" relative="1" as="geometry">
                        <mxPoint x="120" y="12" as="offset"/>
                    </mxGeometry>
                </mxCell>
                <mxCell id="f-vD_DI7PIjXv1ZF155u-1" value="client A" style="rounded=0;whiteSpace=wrap;html=1;" parent="1" vertex="1">
                    <mxGeometry x="120" y="270" width="120" height="60" as="geometry"/>
                </mxCell>
                <mxCell id="f-vD_DI7PIjXv1ZF155u-9" style="edgeStyle=orthogonalEdgeStyle;rounded=0;orthogonalLoop=1;jettySize=auto;html=1;entryX=0.5;entryY=1;entryDx=0;entryDy=0;entryPerimeter=0;" parent="1" source="f-vD_DI7PIjXv1ZF155u-2" target="f-vD_DI7PIjXv1ZF155u-7" edge="1">
                    <mxGeometry relative="1" as="geometry"/>
                </mxCell>
                <mxCell id="f-vD_DI7PIjXv1ZF155u-29" style="edgeStyle=orthogonalEdgeStyle;rounded=0;orthogonalLoop=1;jettySize=auto;html=1;exitX=0.75;exitY=0;exitDx=0;exitDy=0;entryX=0.219;entryY=0.015;entryDx=0;entryDy=0;entryPerimeter=0;" parent="1" source="f-vD_DI7PIjXv1ZF155u-2" target="f-vD_DI7PIjXv1ZF155u-8" edge="1">
                    <mxGeometry relative="1" as="geometry"/>
                </mxCell>
                <mxCell id="f-vD_DI7PIjXv1ZF155u-32" value="pub-key" style="edgeLabel;html=1;align=center;verticalAlign=middle;resizable=0;points=[];" parent="f-vD_DI7PIjXv1ZF155u-29" vertex="1" connectable="0">
                    <mxGeometry x="-0.5013" relative="1" as="geometry">
                        <mxPoint x="11" as="offset"/>
                    </mxGeometry>
                </mxCell>
                <mxCell id="f-vD_DI7PIjXv1ZF155u-30" style="edgeStyle=orthogonalEdgeStyle;rounded=0;orthogonalLoop=1;jettySize=auto;html=1;exitX=0.25;exitY=0;exitDx=0;exitDy=0;entryX=0.75;entryY=0;entryDx=0;entryDy=0;" parent="1" source="f-vD_DI7PIjXv1ZF155u-2" target="f-vD_DI7PIjXv1ZF155u-1" edge="1">
                    <mxGeometry relative="1" as="geometry"/>
                </mxCell>
                <mxCell id="f-vD_DI7PIjXv1ZF155u-31" value="pub-key" style="edgeLabel;html=1;align=center;verticalAlign=middle;resizable=0;points=[];" parent="f-vD_DI7PIjXv1ZF155u-30" vertex="1" connectable="0">
                    <mxGeometry x="0.2065" y="-2" relative="1" as="geometry">
                        <mxPoint x="47" y="2" as="offset"/>
                    </mxGeometry>
                </mxCell>
                <mxCell id="f-vD_DI7PIjXv1ZF155u-2" value="REST API" style="rounded=0;whiteSpace=wrap;html=1;" parent="1" vertex="1">
                    <mxGeometry x="300" y="270" width="120" height="60" as="geometry"/>
                </mxCell>
                <mxCell id="f-vD_DI7PIjXv1ZF155u-4" style="edgeStyle=orthogonalEdgeStyle;rounded=0;orthogonalLoop=1;jettySize=auto;html=1;" parent="1" source="f-vD_DI7PIjXv1ZF155u-3" target="f-vD_DI7PIjXv1ZF155u-1" edge="1">
                    <mxGeometry relative="1" as="geometry"/>
                </mxCell>
                <mxCell id="f-vD_DI7PIjXv1ZF155u-3" value="Niels" style="shape=umlActor;verticalLabelPosition=bottom;verticalAlign=top;html=1;outlineConnect=0;" parent="1" vertex="1">
                    <mxGeometry x="30" y="270" width="30" height="60" as="geometry"/>
                </mxCell>
                <mxCell id="f-vD_DI7PIjXv1ZF155u-13" style="edgeStyle=orthogonalEdgeStyle;rounded=0;orthogonalLoop=1;jettySize=auto;html=1;entryX=1;entryY=0.5;entryDx=0;entryDy=0;" parent="1" source="f-vD_DI7PIjXv1ZF155u-6" target="f-vD_DI7PIjXv1ZF155u-8" edge="1">
                    <mxGeometry relative="1" as="geometry"/>
                </mxCell>
                <mxCell id="f-vD_DI7PIjXv1ZF155u-6" value="Marton" style="shape=umlActor;verticalLabelPosition=bottom;verticalAlign=top;html=1;outlineConnect=0;" parent="1" vertex="1">
                    <mxGeometry x="660" y="270" width="30" height="60" as="geometry"/>
                </mxCell>
                <mxCell id="f-vD_DI7PIjXv1ZF155u-7" value="DB" style="shape=cylinder3;whiteSpace=wrap;html=1;boundedLbl=1;backgroundOutline=1;size=15;" parent="1" vertex="1">
                    <mxGeometry x="330" y="150" width="60" height="80" as="geometry"/>
                </mxCell>
                <mxCell id="f-vD_DI7PIjXv1ZF155u-16" style="edgeStyle=orthogonalEdgeStyle;rounded=0;orthogonalLoop=1;jettySize=auto;html=1;" parent="1" source="f-vD_DI7PIjXv1ZF155u-8" target="f-vD_DI7PIjXv1ZF155u-2" edge="1">
                    <mxGeometry relative="1" as="geometry"/>
                </mxCell>
                <mxCell id="f-vD_DI7PIjXv1ZF155u-28" value="traffic" style="edgeLabel;html=1;align=center;verticalAlign=middle;resizable=0;points=[];" parent="f-vD_DI7PIjXv1ZF155u-16" vertex="1" connectable="0">
                    <mxGeometry x="-0.3889" relative="1" as="geometry">
                        <mxPoint x="-12" as="offset"/>
                    </mxGeometry>
                </mxCell>
                <mxCell id="f-vD_DI7PIjXv1ZF155u-25" style="edgeStyle=orthogonalEdgeStyle;rounded=0;orthogonalLoop=1;jettySize=auto;html=1;exitX=0.25;exitY=1;exitDx=0;exitDy=0;entryX=0.5;entryY=1;entryDx=0;entryDy=0;" parent="1" source="f-vD_DI7PIjXv1ZF155u-8" target="f-vD_DI7PIjXv1ZF155u-2" edge="1">
                    <mxGeometry relative="1" as="geometry"/>
                </mxCell>
                <mxCell id="f-vD_DI7PIjXv1ZF155u-8" value="client B" style="rounded=0;whiteSpace=wrap;html=1;" parent="1" vertex="1">
                    <mxGeometry x="480" y="270" width="120" height="60" as="geometry"/>
                </mxCell>
                <mxCell id="f-vD_DI7PIjXv1ZF155u-33" value="priv-key" style="aspect=fixed;perimeter=ellipsePerimeter;html=1;align=center;shadow=0;dashed=0;spacingTop=3;image;image=img/lib/active_directory/key.svg;" parent="1" vertex="1">
                    <mxGeometry x="690" y="280" width="27.02" height="20" as="geometry"/>
                </mxCell>
                <mxCell id="f-vD_DI7PIjXv1ZF155u-34" value="priv-key" style="aspect=fixed;perimeter=ellipsePerimeter;html=1;align=center;shadow=0;dashed=0;spacingTop=3;image;image=img/lib/active_directory/key.svg;" parent="1" vertex="1">
                    <mxGeometry x="10" y="280" width="27.03" height="20" as="geometry"/>
                </mxCell>
                <mxCell id="f-vD_DI7PIjXv1ZF155u-35" value="Enrcypted content gets stored here" style="text;html=1;strokeColor=none;fillColor=none;align=center;verticalAlign=middle;whiteSpace=wrap;rounded=0;" parent="1" vertex="1">
                    <mxGeometry x="310" y="110" width="100" height="40" as="geometry"/>
                </mxCell>
                <mxCell id="f-vD_DI7PIjXv1ZF155u-36" value="Clients:&lt;br&gt;1. serve as encryptors before sending to api&lt;br&gt;&lt;div style=&quot;&quot;&gt;&lt;span style=&quot;background-color: initial;&quot;&gt;2. display messages (decrypted)&lt;/span&gt;&lt;/div&gt;&lt;div style=&quot;&quot;&gt;&lt;span style=&quot;background-color: initial;&quot;&gt;3. are responsible for introducing new users&lt;/span&gt;&lt;/div&gt;&lt;div style=&quot;&quot;&gt;&lt;span style=&quot;background-color: initial;&quot;&gt;&lt;span style=&quot;white-space: pre;&quot;&gt;&#9;&lt;/span&gt;(keygen)&lt;br&gt;&lt;/span&gt;&lt;/div&gt;" style="text;html=1;align=left;verticalAlign=middle;resizable=0;points=[];autosize=1;strokeColor=none;fillColor=none;" parent="1" vertex="1">
                    <mxGeometry x="1" y="355" width="260" height="90" as="geometry"/>
                </mxCell>
                <mxCell id="f-vD_DI7PIjXv1ZF155u-37" value="Process:&lt;br&gt;1. opens app&lt;br&gt;2. generates keypair&lt;br&gt;3. registers by sending public key to api&lt;br&gt;4. api saves public key in the database&lt;br&gt;5. starts a chat&lt;br&gt;6. fetches public key of partner&lt;br&gt;7. diffie hellman wizardry on both sides&lt;br&gt;8. both chat participants should have symmetric keys now&lt;br&gt;9. messages sent by the client should be encrypted by that key&lt;br&gt;10. database stores encrypted key&lt;br&gt;11. receiving client decrypts encrypted message" style="text;html=1;align=left;verticalAlign=middle;resizable=0;points=[];autosize=1;strokeColor=none;fillColor=none;" parent="1" vertex="1">
                    <mxGeometry x="270" y="370" width="360" height="190" as="geometry"/>
                </mxCell>
            </root>
        </mxGraphModel>
    </diagram>
    <diagram id="0QYccwgWY2XjuEcnsxuh" name="Class Architecture">
        <mxGraphModel dx="1130" dy="793" grid="1" gridSize="10" guides="1" tooltips="1" connect="1" arrows="1" fold="1" page="1" pageScale="1" pageWidth="850" pageHeight="1100" math="0" shadow="0">
            <root>
                <mxCell id="0"/>
                <mxCell id="1" parent="0"/>
                <mxCell id="4Wpw72J3rdFNvXn8lgcY-7" style="edgeStyle=none;html=1;exitX=0.5;exitY=0;exitDx=0;exitDy=0;entryX=0;entryY=0.5;entryDx=0;entryDy=0;dashed=1;" edge="1" parent="1" source="4Wpw72J3rdFNvXn8lgcY-1" target="4Wpw72J3rdFNvXn8lgcY-5">
                    <mxGeometry relative="1" as="geometry">
                        <Array as="points">
                            <mxPoint x="150" y="100"/>
                        </Array>
                    </mxGeometry>
                </mxCell>
                <mxCell id="4Wpw72J3rdFNvXn8lgcY-1" value="KeygenService" style="swimlane;fontStyle=0;childLayout=stackLayout;horizontal=1;startSize=26;fillColor=none;horizontalStack=0;resizeParent=1;resizeParentMax=0;resizeLast=0;collapsible=1;marginBottom=0;" vertex="1" parent="1">
                    <mxGeometry x="80" y="120" width="140" height="52" as="geometry"/>
                </mxCell>
                <mxCell id="4Wpw72J3rdFNvXn8lgcY-2" value="+ generateKeypair" style="text;strokeColor=none;fillColor=none;align=left;verticalAlign=top;spacingLeft=4;spacingRight=4;overflow=hidden;rotatable=0;points=[[0,0.5],[1,0.5]];portConstraint=eastwest;" vertex="1" parent="4Wpw72J3rdFNvXn8lgcY-1">
                    <mxGeometry y="26" width="140" height="26" as="geometry"/>
                </mxCell>
                <mxCell id="4Wpw72J3rdFNvXn8lgcY-5" value="«interface»&lt;br&gt;&lt;b&gt;IKeygenService&lt;/b&gt;" style="html=1;" vertex="1" parent="1">
                    <mxGeometry x="290" y="80" width="110" height="40" as="geometry"/>
                </mxCell>
                <mxCell id="4Wpw72J3rdFNvXn8lgcY-15" style="edgeStyle=none;html=1;entryX=0;entryY=0.5;entryDx=0;entryDy=0;dashed=1;" edge="1" parent="1" source="4Wpw72J3rdFNvXn8lgcY-8" target="4Wpw72J3rdFNvXn8lgcY-12">
                    <mxGeometry relative="1" as="geometry">
                        <Array as="points">
                            <mxPoint x="240" y="192"/>
                        </Array>
                    </mxGeometry>
                </mxCell>
                <mxCell id="4Wpw72J3rdFNvXn8lgcY-8" value="DiffieHellmanService" style="swimlane;fontStyle=0;childLayout=stackLayout;horizontal=1;startSize=26;fillColor=none;horizontalStack=0;resizeParent=1;resizeParentMax=0;resizeLast=0;collapsible=1;marginBottom=0;" vertex="1" parent="1">
                    <mxGeometry x="80" y="230" width="320" height="78" as="geometry"/>
                </mxCell>
                <mxCell id="4Wpw72J3rdFNvXn8lgcY-9" value="+ constructor(publickeyA, privatekeyA, publickeyB)" style="text;strokeColor=none;fillColor=none;align=left;verticalAlign=top;spacingLeft=4;spacingRight=4;overflow=hidden;rotatable=0;points=[[0,0.5],[1,0.5]];portConstraint=eastwest;" vertex="1" parent="4Wpw72J3rdFNvXn8lgcY-8">
                    <mxGeometry y="26" width="320" height="26" as="geometry"/>
                </mxCell>
                <mxCell id="4Wpw72J3rdFNvXn8lgcY-10" value="+ calculateSymmetricKey" style="text;strokeColor=none;fillColor=none;align=left;verticalAlign=top;spacingLeft=4;spacingRight=4;overflow=hidden;rotatable=0;points=[[0,0.5],[1,0.5]];portConstraint=eastwest;" vertex="1" parent="4Wpw72J3rdFNvXn8lgcY-8">
                    <mxGeometry y="52" width="320" height="26" as="geometry"/>
                </mxCell>
                <mxCell id="4Wpw72J3rdFNvXn8lgcY-12" value="«interface»&lt;br&gt;&lt;b&gt;IDiffieHellmanService&lt;/b&gt;" style="html=1;" vertex="1" parent="1">
                    <mxGeometry x="348" y="172" width="155" height="40" as="geometry"/>
                </mxCell>
                <mxCell id="4Wpw72J3rdFNvXn8lgcY-19" style="edgeStyle=none;html=1;entryX=0;entryY=0.5;entryDx=0;entryDy=0;dashed=1;" edge="1" parent="1" source="4Wpw72J3rdFNvXn8lgcY-20" target="4Wpw72J3rdFNvXn8lgcY-23">
                    <mxGeometry relative="1" as="geometry">
                        <Array as="points">
                            <mxPoint x="215" y="360"/>
                        </Array>
                    </mxGeometry>
                </mxCell>
                <mxCell id="4Wpw72J3rdFNvXn8lgcY-20" value="CryptographyService" style="swimlane;fontStyle=0;childLayout=stackLayout;horizontal=1;startSize=26;fillColor=none;horizontalStack=0;resizeParent=1;resizeParentMax=0;resizeLast=0;collapsible=1;marginBottom=0;" vertex="1" parent="1">
                    <mxGeometry x="80" y="398" width="270" height="104" as="geometry"/>
                </mxCell>
                <mxCell id="4Wpw72J3rdFNvXn8lgcY-21" value="+ constructor(symmetricKey)" style="text;strokeColor=none;fillColor=none;align=left;verticalAlign=top;spacingLeft=4;spacingRight=4;overflow=hidden;rotatable=0;points=[[0,0.5],[1,0.5]];portConstraint=eastwest;" vertex="1" parent="4Wpw72J3rdFNvXn8lgcY-20">
                    <mxGeometry y="26" width="270" height="26" as="geometry"/>
                </mxCell>
                <mxCell id="4Wpw72J3rdFNvXn8lgcY-22" value="+ encryptMessage(message)" style="text;strokeColor=none;fillColor=none;align=left;verticalAlign=top;spacingLeft=4;spacingRight=4;overflow=hidden;rotatable=0;points=[[0,0.5],[1,0.5]];portConstraint=eastwest;" vertex="1" parent="4Wpw72J3rdFNvXn8lgcY-20">
                    <mxGeometry y="52" width="270" height="26" as="geometry"/>
                </mxCell>
                <mxCell id="4Wpw72J3rdFNvXn8lgcY-25" value="+ decryptMessage(message)" style="text;strokeColor=none;fillColor=none;align=left;verticalAlign=top;spacingLeft=4;spacingRight=4;overflow=hidden;rotatable=0;points=[[0,0.5],[1,0.5]];portConstraint=eastwest;" vertex="1" parent="4Wpw72J3rdFNvXn8lgcY-20">
                    <mxGeometry y="78" width="270" height="26" as="geometry"/>
                </mxCell>
                <mxCell id="4Wpw72J3rdFNvXn8lgcY-23" value="«interface»&lt;br&gt;&lt;b&gt;ICryptographyService&lt;/b&gt;" style="html=1;" vertex="1" parent="1">
                    <mxGeometry x="315" y="340" width="175" height="40" as="geometry"/>
                </mxCell>
                <mxCell id="4Wpw72J3rdFNvXn8lgcY-26" style="edgeStyle=none;html=1;entryX=0;entryY=0.5;entryDx=0;entryDy=0;dashed=1;" edge="1" parent="1" source="4Wpw72J3rdFNvXn8lgcY-27" target="4Wpw72J3rdFNvXn8lgcY-31">
                    <mxGeometry relative="1" as="geometry">
                        <Array as="points">
                            <mxPoint x="215" y="550"/>
                        </Array>
                    </mxGeometry>
                </mxCell>
                <mxCell id="4Wpw72J3rdFNvXn8lgcY-27" value="APIService" style="swimlane;fontStyle=0;childLayout=stackLayout;horizontal=1;startSize=26;fillColor=none;horizontalStack=0;resizeParent=1;resizeParentMax=0;resizeLast=0;collapsible=1;marginBottom=0;" vertex="1" parent="1">
                    <mxGeometry x="80" y="588" width="270" height="104" as="geometry"/>
                </mxCell>
                <mxCell id="4Wpw72J3rdFNvXn8lgcY-28" value="+ constructor(APIKey)" style="text;strokeColor=none;fillColor=none;align=left;verticalAlign=top;spacingLeft=4;spacingRight=4;overflow=hidden;rotatable=0;points=[[0,0.5],[1,0.5]];portConstraint=eastwest;" vertex="1" parent="4Wpw72J3rdFNvXn8lgcY-27">
                    <mxGeometry y="26" width="270" height="26" as="geometry"/>
                </mxCell>
                <mxCell id="4Wpw72J3rdFNvXn8lgcY-29" value="+ register" style="text;strokeColor=none;fillColor=none;align=left;verticalAlign=top;spacingLeft=4;spacingRight=4;overflow=hidden;rotatable=0;points=[[0,0.5],[1,0.5]];portConstraint=eastwest;" vertex="1" parent="4Wpw72J3rdFNvXn8lgcY-27">
                    <mxGeometry y="52" width="270" height="26" as="geometry"/>
                </mxCell>
                <mxCell id="4Wpw72J3rdFNvXn8lgcY-32" value="+ sendMessage(message)" style="text;strokeColor=none;fillColor=none;align=left;verticalAlign=top;spacingLeft=4;spacingRight=4;overflow=hidden;rotatable=0;points=[[0,0.5],[1,0.5]];portConstraint=eastwest;" vertex="1" parent="4Wpw72J3rdFNvXn8lgcY-27">
                    <mxGeometry y="78" width="270" height="26" as="geometry"/>
                </mxCell>
                <mxCell id="4Wpw72J3rdFNvXn8lgcY-31" value="«interface»&lt;br&gt;&lt;b&gt;IAPIService&lt;/b&gt;" style="html=1;" vertex="1" parent="1">
                    <mxGeometry x="315" y="530" width="175" height="40" as="geometry"/>
                </mxCell>
            </root>
        </mxGraphModel>
    </diagram>
</mxfile>